<?xml version="1.0" encoding="utf-8"?>
<!-- Generator: Adobe Illustrator 16.0.0, SVG Export Plug-In . SVG Version: 6.00 Build 0)  -->
<!DOCTYPE svg PUBLIC "-//W3C//DTD SVG 1.1//EN" "http://www.w3.org/Graphics/SVG/1.1/DTD/svg11.dtd">
<svg version="1.1" id="图层_1" xmlns="http://www.w3.org/2000/svg" xmlns:xlink="http://www.w3.org/1999/xlink" x="0px" y="0px"
	 width="173.914px" height="172.464px" viewBox="0 0 173.914 172.464" enable-background="new 0 0 173.914 172.464"
	 xml:space="preserve">
<linearGradient id="SVGID_1_" gradientUnits="userSpaceOnUse" x1="-91.771" y1="219.4067" x2="-91.771" y2="352.0617" gradientTransform="matrix(1 0 0 -1 179.04 375.8037)">
	<stop  offset="0" style="stop-color:#E92900"/>
	<stop  offset="0.9704" style="stop-color:#C10D00"/>
</linearGradient>
<circle fill="url(#SVGID_1_)" cx="87.269" cy="87.631" r="79.17"/>
<linearGradient id="SVGID_2_" gradientUnits="userSpaceOnUse" x1="86.957" y1="18.7583" x2="86.957" y2="151.619">
	<stop  offset="0" style="stop-color:#FF9254"/>
	<stop  offset="0.9655" style="stop-color:#E90F00"/>
</linearGradient>
<path opacity="0.54" fill="url(#SVGID_2_)" d="M86.957,8.338c-43.795,0-79.292,35.497-79.292,79.293
	c0,43.795,35.497,79.291,79.292,79.291s79.293-35.496,79.293-79.291C166.25,43.835,130.751,8.338,86.957,8.338z M86.957,154.8
	c-37.097,0-67.169-30.073-67.169-67.17c0-37.098,30.072-67.17,67.169-67.17s67.169,30.072,67.169,67.17
	C154.125,124.727,124.053,154.8,86.957,154.8z"/>
</svg>
