<?xml version="1.0" encoding="utf-8"?>
<!-- Generator: Adobe Illustrator 16.0.0, SVG Export Plug-In . SVG Version: 6.00 Build 0)  -->
<!DOCTYPE svg PUBLIC "-//W3C//DTD SVG 1.1//EN" "http://www.w3.org/Graphics/SVG/1.1/DTD/svg11.dtd">
<svg version="1.1" id="隔离模式" xmlns="http://www.w3.org/2000/svg" xmlns:xlink="http://www.w3.org/1999/xlink" x="0px"
	 y="0px" width="1008px" height="363.313px" viewBox="0 0 1008 363.313" enable-background="new 0 0 1008 363.313"
	 xml:space="preserve">
<path fill="#99999A" d="M282.293,152.929l446.259,0.031c14.501,0,29.002,14.501,28.999,29c0,14.501-14.499,29-29,29l-446.289,0.061
	c-14.499,0.003-27.185-12.684-29.03-29.03C255.047,165.68,267.734,152.993,282.293,152.929L282.293,152.929z M684.993,69.527
	h141.493c63.496,1.873,132.432,52.56,132.434,114.308l-0.002,21.746c-1.813,63.436-68.936,116.057-132.435,114.309H684.99
	c-50.81-0.058-99.743-34.496-117.932-81.682l-48.935,1.812c12.687,67.184,74.311,117.93,145.117,116.121l183.18,1.812
	c83.494-0.001,150.616-67.123,148.805-148.805l1.812-27.186c0-83.372-67.122-150.495-148.743-148.743L663.241,33.28
	c-63.496-1.873-117.93,41.689-139.741,96.122h50.873c21.812-36.313,67.12-59.873,110.617-59.872L684.993,69.527z M327.636,292.645
	l-143.308,1.809c-61.711,0.033-130.649-50.778-130.619-116.117l0.002-21.752c-0.033-61.65,68.905-112.462,130.619-112.493
	l143.306-1.812c50.775,0.029,101.558,36.311,117.896,81.651l49.031,1.782C479.972,56.871,420.162,7.813,349.383,6.032L164.361,6
	C80.898,6.03,13.778,73.15,15.62,154.742l-0.03,29.093C15.623,263.61,82.743,330.73,164.33,332.576l183.274-1.845
	c65.277,0.035,119.71-39.902,139.65-96.087l-50.779-0.033C414.727,270.861,372.979,294.483,327.636,292.645L327.636,292.645z
	 M327.636,292.645"/>
</svg>
