<?xml version="1.0" encoding="utf-8"?>
<!-- Generator: Adobe Illustrator 16.0.0, SVG Export Plug-In . SVG Version: 6.00 Build 0)  -->
<!DOCTYPE svg PUBLIC "-//W3C//DTD SVG 1.1//EN" "http://www.w3.org/Graphics/SVG/1.1/DTD/svg11.dtd">
<svg version="1.1" id="图层_1" xmlns="http://www.w3.org/2000/svg" xmlns:xlink="http://www.w3.org/1999/xlink" x="0px" y="0px"
	 width="463px" height="281px" viewBox="0 0 463 281" enable-background="new 0 0 463 281" xml:space="preserve">
<g>
	<image overflow="visible" width="464" height="117" xlink:href="713FCB13.png"  transform="matrix(1 0 0 1 2.333 159.1563)">
	</image>
</g>
<path fill="#468889" d="M107.129,238.93c-35.893,0-65.093-29.201-65.093-65.094c0-35.895,30.571-59.738,66.464-59.738l2.08-5.359
	c-0.01-0.494-0.017-0.984-0.017-1.473c0-40.477,32.928-73.406,73.401-73.406c16.283,0,31.688,5.252,44.392,14.971
	c6.525-9.948,15.075-18.455,25.147-24.954c13.707-8.843,29.609-13.516,45.988-13.516c46.953,0,85.152,38.199,85.152,85.156
	c0,5.04-0.447,10.054-1.332,14.988c28.891,6.767,50.281,32.844,50.281,63.331c0,35.893-29.202,65.094-65.097,65.094H107.129z"/>
<path fill="#82CABC" d="M100.156,239.607c-35.891,0-65.091-29.203-65.091-65.098c0-35.893,29.2-65.094,65.091-65.094h3.455
	c-0.012-0.494-0.018-0.984-0.018-1.474c0-40.475,32.928-73.404,73.4-73.404c16.283,0,31.688,5.25,44.392,14.97
	c6.525-9.948,15.075-18.454,25.147-24.953c13.706-8.844,29.61-13.517,45.989-13.517c46.953,0,85.15,38.201,85.15,85.156
	c0,5.039-0.444,10.053-1.33,14.989c28.89,6.767,50.281,32.844,50.281,63.327c0,35.895-29.203,65.098-65.098,65.098H100.156z"/>
<radialGradient id="SVGID_1_" cx="208.1729" cy="134.4014" r="135.9045" gradientTransform="matrix(1.117 0 0 1.117 -40.9134 -37.881)" gradientUnits="userSpaceOnUse">
	<stop  offset="0.1194" style="stop-color:#52BCAE"/>
	<stop  offset="1" style="stop-color:#118E63"/>
</radialGradient>
<path fill="url(#SVGID_1_)" d="M365.559,118.42c2.152-7.037,3.318-14.49,3.318-22.227c0-42.17-34.196-76.358-76.354-76.358
	c-30.403,0-56.564,17.799-68.855,43.498c-11.767-12.3-28.303-19.997-46.673-19.997c-35.678,0-64.604,28.924-64.604,64.605
	c0,3.506,0.354,6.918,0.891,10.271h-13.124c-31.092,0-56.292,25.209-56.292,56.297c0,31.092,25.2,56.299,56.292,56.299h261.37
	c31.096,0,56.301-25.207,56.301-56.299C417.827,144.779,394.762,120.498,365.559,118.42z"/>
<g>
	<g>
		<polygon fill="#FFFFFF" points="256.204,83.305 251.551,78.652 225.606,104.597 223.787,102.796 249.739,76.842 245.088,72.189 
			219.109,98.167 216.921,95.999 242.908,70.009 238.257,65.358 212.244,91.369 212.244,91.369 206.726,96.887 211.379,101.54 
			211.403,101.516 213.594,103.685 213.558,103.719 218.213,108.372 218.269,108.313 220.089,110.115 220.021,110.182 
			224.675,114.835 224.766,114.744 224.84,114.817 230.357,109.3 230.283,109.227 		"/>
		<polygon fill="#FFFFFF" points="203.808,98.923 199.155,103.574 225.103,129.521 223.299,131.336 197.346,105.385 
			192.692,110.037 218.67,136.018 216.504,138.207 190.512,112.217 185.861,116.87 211.873,142.882 211.873,142.882 
			217.391,148.399 222.045,143.746 222.019,143.723 224.187,141.533 224.222,141.568 228.877,136.916 228.816,136.854 
			230.618,135.038 230.685,135.104 235.339,130.452 235.244,130.361 235.321,130.284 229.804,124.77 229.729,124.844 		"/>
		<polygon fill="#FFFFFF" points="219.426,150.862 224.079,155.517 250.021,129.573 251.842,131.372 225.888,157.328 
			230.542,161.98 256.518,136.001 258.709,138.169 232.722,164.161 237.373,168.812 263.386,142.798 263.386,142.798 
			268.904,137.28 264.25,132.63 264.227,132.651 262.036,130.486 262.07,130.45 257.417,125.795 257.359,125.855 255.539,124.054 
			255.608,123.985 250.955,119.333 250.862,119.425 250.788,119.35 245.272,124.867 245.347,124.941 		"/>
		<polygon fill="#FFFFFF" points="271.819,135.244 276.473,130.591 250.529,104.648 252.329,102.829 278.282,128.782 
			282.937,124.131 256.958,98.152 259.126,95.961 285.115,121.95 289.769,117.299 263.755,91.285 263.755,91.285 258.237,85.77 
			253.584,90.421 253.608,90.444 251.44,92.636 251.406,92.599 246.753,97.253 246.812,97.312 245.012,99.132 244.943,99.063 
			240.289,103.717 240.383,103.808 240.309,103.882 245.826,109.399 245.899,109.325 		"/>
	</g>
	<g>
		<linearGradient id="SVGID_2_" gradientUnits="userSpaceOnUse" x1="218.1704" y1="106.8857" x2="246.4145" y2="78.2201">
			<stop  offset="0" style="stop-color:#DC992A"/>
			<stop  offset="1" style="stop-color:#F5E829"/>
		</linearGradient>
		<polygon fill="url(#SVGID_2_)" points="254.391,86.637 250.197,82.443 226.81,105.829 225.169,104.206 248.565,80.811 
			244.371,76.617 220.953,100.033 218.98,98.08 242.406,74.652 238.213,70.458 214.765,93.906 214.765,93.906 209.791,98.879 
			213.985,103.073 214.007,103.052 215.98,105.007 215.949,105.038 220.143,109.232 220.198,109.178 221.836,110.802 
			221.775,110.863 225.969,115.058 226.051,114.975 226.12,115.041 231.091,110.068 231.025,110.002 		"/>
		<linearGradient id="SVGID_3_" gradientUnits="userSpaceOnUse" x1="199.8135" y1="109.9341" x2="228.0248" y2="137.3279">
			<stop  offset="0" style="stop-color:#DC992A"/>
			<stop  offset="1" style="stop-color:#BD1D21"/>
		</linearGradient>
		<polygon fill="url(#SVGID_3_)" points="207.162,100.714 202.968,104.907 226.354,128.294 224.731,129.935 201.335,106.54 
			197.142,110.733 220.558,134.151 218.603,136.123 195.177,112.697 190.983,116.892 214.432,140.34 214.432,140.34 
			219.405,145.313 223.599,141.118 223.577,141.097 225.531,139.125 225.563,139.153 229.757,134.961 229.705,134.906 
			231.327,133.268 231.39,133.327 235.583,129.135 235.5,129.053 235.565,128.983 230.594,124.012 230.527,124.079 		"/>
		<linearGradient id="SVGID_4_" gradientUnits="userSpaceOnUse" x1="257.3281" y1="127.2188" x2="229.525" y2="155.8397">
			<stop  offset="0" style="stop-color:#103675"/>
			<stop  offset="0.1312" style="stop-color:#4F3561"/>
			<stop  offset="0.2694" style="stop-color:#76314E"/>
			<stop  offset="0.4106" style="stop-color:#912D3E"/>
			<stop  offset="0.5531" style="stop-color:#A52732"/>
			<stop  offset="0.6975" style="stop-color:#B32228"/>
			<stop  offset="0.845" style="stop-color:#BA1F23"/>
			<stop  offset="1" style="stop-color:#BD1D21"/>
		</linearGradient>
		<polygon fill="url(#SVGID_4_)" points="221.239,147.534 225.433,151.729 248.819,128.342 250.458,129.964 227.065,153.358 
			231.258,157.554 254.675,134.137 256.649,136.092 233.224,159.518 237.417,163.713 260.865,140.263 260.865,140.263 
			265.838,135.292 261.643,131.097 261.623,131.118 259.648,129.163 259.678,129.13 255.484,124.937 255.432,124.992 
			253.792,123.367 253.854,123.306 249.659,119.112 249.576,119.195 249.51,119.129 244.536,124.104 244.603,124.169 		"/>
		<linearGradient id="SVGID_5_" gradientUnits="userSpaceOnUse" x1="276.6558" y1="124.2393" x2="248.0346" y2="98.0711">
			<stop  offset="0" style="stop-color:#103675"/>
			<stop  offset="0.1421" style="stop-color:#4C5574"/>
			<stop  offset="0.3078" style="stop-color:#807C70"/>
			<stop  offset="0.4694" style="stop-color:#ABA265"/>
			<stop  offset="0.6231" style="stop-color:#CBC056"/>
			<stop  offset="0.7667" style="stop-color:#E2D643"/>
			<stop  offset="0.8963" style="stop-color:#F0E432"/>
			<stop  offset="1" style="stop-color:#F5E829"/>
		</linearGradient>
		<polygon fill="url(#SVGID_5_)" points="268.467,133.454 272.662,129.262 249.274,105.875 250.896,104.235 274.292,127.63 
			278.487,123.435 255.069,100.02 257.024,98.045 280.45,121.472 284.646,117.279 261.198,93.83 261.198,93.83 256.224,88.857 
			252.028,93.051 252.051,93.072 250.096,95.047 250.066,95.015 245.873,99.209 245.925,99.262 244.301,100.903 244.24,100.84 
			240.045,105.036 240.129,105.118 240.063,105.185 245.037,110.158 245.103,110.091 		"/>
	</g>
</g>
<g>
	<path fill="#FFFFFF" d="M70.282,198.634h9.608c0.092-1.386,0.154-3.12,0.188-5.2h3.474c0,1.571-0.029,3.306-0.087,5.2h2.561
		c-0.233-0.974-0.466-1.906-0.7-2.794l3.011-0.796c-1.516-0.933-3.103-1.859-4.76-2.78l1.399-3.25
		c3.049,1.668,5.789,3.326,8.222,4.974l-1.35,3.313c-1.108-0.736-2.253-1.472-3.436-2.21c0.3,1.258,0.57,2.439,0.812,3.543h4.548
		v3.836h-9.171c2.199,3.649,5.439,5.881,9.721,6.693c-0.483,1.278-0.967,2.667-1.449,4.16c-4.974-1.483-8.597-4.494-10.871-9.033
		c-1.442,3.573-5.015,6.574-10.721,9c-0.45-1.256-1.017-2.63-1.699-4.127c4.631-1.386,7.709-3.617,9.234-6.693h-8.534V198.634z
		 M83.252,180.987c0.399,1.386,0.741,2.696,1.024,3.933h9.546v6.563h-3.199v-2.729H73.381v2.729h-3.199v-6.563h10.221
		c-0.234-1.019-0.534-2.157-0.9-3.413L83.252,180.987z M78.829,189.11l1.599,3.316l-8.046,5.004c-0.4-0.996-0.9-2.101-1.5-3.313
		C73.498,192.62,76.146,190.953,78.829,189.11z"/>
	<path fill="#FFFFFF" d="M119.435,198.017c-1.283,2.882-2.949,5.405-4.998,7.573c1.899,1.104,4.44,1.971,7.622,2.6
		c-0.733,1.561-1.441,3.141-2.124,4.744c-3.399-0.996-6.29-2.481-8.671-4.453c-2.449,1.864-5.348,3.457-8.696,4.779
		c-0.6-1.43-1.233-2.83-1.9-4.193c2.782-1.018,5.29-2.199,7.522-3.543c-1.217-1.473-2.316-3.163-3.299-5.07
		c-1.933,4.008-4.148,7.41-6.647,10.207c-0.35-2.039-0.717-3.848-1.1-5.43c3.249-3.964,5.672-8.569,7.272-13.811h-6.272v-3.899
		c0.466-1.778,0.882-3.641,1.25-5.59l3.423,0.486c-0.25,1.343-0.591,3.013-1.024,5.004h3.599c0.382-1.841,0.766-3.986,1.149-6.434
		l3.624,0.39l-1.049,6.044h6.997c-0.933-1.191-1.891-2.382-2.874-3.574l2.199-2.696c1.533,1.538,2.832,2.935,3.899,4.19l-1.575,2.08
		h4.223v3.999h-13.819c-0.25,0.91-0.542,1.906-0.875,2.99h12.145V198.017z M111.213,203.25c1.732-1.604,3.082-3.294,4.048-5.07
		h-7.597C108.597,200.107,109.78,201.798,111.213,203.25z"/>
	<path fill="#FFFFFF" d="M126.479,204.613h9.071v-1.526H124.93v-2.927h10.621v-1.493h-9.021v-2.797h9.021v-1.493h-8.296v-6.856
		h8.296v-1.464h-10.446v-2.926h10.446v-2.11h3.398v2.11h10.471v2.926h-10.471v1.464h8.347v6.856h-8.347v1.493h8.696v4.29h1.95v2.927
		h-1.95v5.783h-3.349v-1.46h-5.348v0.94c0,0.998-0.146,1.833-0.437,2.511c-0.292,0.678-0.731,1.173-1.318,1.488
		c-0.587,0.313-1.01,0.473-1.269,0.479s-1.741,0.009-4.448,0.009c-0.1-1.301-0.267-2.677-0.5-4.127
		c1.583,0.193,2.657,0.29,3.224,0.29c0.883,0,1.333-0.529,1.35-1.59h-9.071V204.613z M130.502,191.777h5.048v-1.657h-5.048V191.777z
		 M144.047,191.777v-1.657h-5.098v1.657H144.047z M144.297,198.667h-5.348v1.493h5.348V198.667z M138.949,204.613h5.348v-1.526
		h-5.348V204.613z"/>
	<path fill="#FFFFFF" d="M157.166,181.15l3.448,1.3c-0.6,2.318-1.215,4.5-1.848,6.547v24.133h-3.349v-14.805
		c-0.675,1.592-1.367,3.061-2.074,4.404c-0.3-2.361-0.592-4.389-0.875-6.079C154.216,192.36,155.782,187.194,157.166,181.15z
		 M159.865,198.537h7.971v-6.207H164.4c-0.484,2.047-0.996,3.878-1.537,5.49c-0.917-0.649-1.958-1.289-3.125-1.917
		c1.117-3.487,2.067-7.712,2.849-12.673l3.375,1.07c-0.217,1.344-0.443,2.622-0.676,3.836h2.549v-7.02h3.625v7.02h5.222v4.193
		h-5.222v6.207h5.897v4.192h-5.897v10.431h-3.625v-10.431h-7.971V198.537z"/>
	<path fill="#FFFFFF" d="M190.624,193.207l-0.8,10.823h-2.249l0.5-6.793h-1.699v11.829c0,2.47-0.908,3.781-2.724,3.934
		c-0.583,0.063-1.507,0.097-2.774,0.097c-0.2-1.322-0.424-2.719-0.675-4.193c0.534,0.044,1.05,0.066,1.55,0.066
		c0.916,0,1.374-0.629,1.374-1.887v-9.846h-3.099v-4.03h3.449c-1.066-0.977-2.074-1.887-3.023-2.73l1.773-2.893
		c0.882,0.932,1.767,1.887,2.649,2.859l2.049-3.833h-6.497v-3.9h9.846v4.16l-3.349,6.337H190.624z M196.196,195.19h3.149v0.94
		c0,3.38-0.199,6.068-0.6,8.06c2.266,2.06,4.347,4.096,6.246,6.109l-2.348,3.12c-1.483-1.861-3.191-3.759-5.123-5.687
		c-1.067,1.928-2.99,3.836-5.772,5.72c-0.7-1.386-1.392-2.653-2.075-3.803c2.966-1.711,4.823-3.541,5.573-5.49
		c0.649-1.69,0.966-4.367,0.949-8.029V195.19z M191.474,205.07v-15.6h3.898l0.4-2.797h-4.798v-4.03h13.495v4.03h-5.322l-0.476,2.797
		h5.373v15.6h-3.224V193.5h-6.123v11.57H191.474z"/>
	<path fill="#FFFFFF" d="M208.189,196.684h11.247c-0.084-0.346-0.167-0.704-0.251-1.073c-0.399,0.175-0.882,0.26-1.448,0.26h-2.075
		c-0.05-0.323-0.1-0.639-0.15-0.94h-3.299v0.584h-2.049v-4.03c-0.317,0.478-0.632,0.943-0.949,1.397
		c-0.417-0.822-0.883-1.635-1.399-2.438c1.082-1.363,1.941-2.979,2.574-4.843h0.775v-0.747h-3.099v-2.34h3.099v-1.493h2.749v1.493
		h2.149v-1.526h2.749v1.526h3.249v2.34h-3.249v1.04h-2.749v-1.04h-2.149v0.91h-0.974c-0.084,0.26-0.176,0.498-0.276,0.717h8.121
		c-0.016,1.991-0.057,4.019-0.124,6.076c-0.017,0.91-0.183,1.635-0.5,2.177l1.774-0.193c0.116,0.671,0.232,1.386,0.349,2.144h10.046
		v2.666h-24.141V196.684z M210.814,200.65h18.442v1.689h-18.442V200.65z M210.814,203.64h18.442v1.69h-18.442V203.64z
		 M210.814,206.693h18.442v6.696h-3.199v-0.847h-12.045v0.847h-3.198V206.693z M211.063,189.957h5.673v3.347
		c0.149,0,0.308,0,0.475,0c0.55,0,0.85-0.335,0.899-1.007c0.033-0.91,0.059-2.047,0.075-3.413h-6.572
		C211.43,189.252,211.247,189.61,211.063,189.957z M212.213,193.011h2.474v-1.137h-2.474V193.011z M226.057,208.514h-12.045v1.496
		h12.045V208.514z M220.884,187.877c1.299-2.037,2.233-4.334,2.799-6.89l2.799,0.163c-0.183,0.735-0.383,1.451-0.6,2.144h6.373v2.99
		h-1.475c-0.449,1.928-1.142,3.606-2.074,5.036c1.049,0.717,2.282,1.291,3.698,1.724c-0.567,1.127-1.067,2.135-1.5,3.022
		c-1.617-0.672-2.981-1.474-4.099-2.406c-1.049,1.02-2.291,1.864-3.724,2.537c-0.482-0.997-1.024-2.006-1.624-3.023
		c1.283-0.454,2.399-1.051,3.349-1.787c-0.45-0.694-0.874-1.506-1.274-2.437c-0.333,0.628-0.684,1.245-1.05,1.851
		C221.8,189.479,221.268,188.505,220.884,187.877z M226.707,189.501c0.7-0.931,1.232-2.003,1.6-3.217h-3.373
		C225.433,187.562,226.024,188.635,226.707,189.501z"/>
	<path fill="#FFFFFF" d="M239.7,181.15l3.298,1.137c-0.625,2.6-1.266,5.031-1.924,7.297v23.513H237.9v-14.35
		c-0.591,1.409-1.191,2.704-1.799,3.883c-0.183-1.731-0.45-3.77-0.8-6.109C236.834,192.795,238.3,187.671,239.7,181.15z
		 M260.141,188.494h-17.468v-3.704h6.697c-0.3-0.943-0.641-1.94-1.023-2.989l3.723-0.88c0.408,0.998,0.867,2.287,1.375,3.869h6.697
		V188.494z M243.648,213.097v-12.479h15.043v12.479h-3.424v-1.69h-8.196v1.69H243.648z M258.691,193.76h-14.994v-3.479h14.994
		V193.76z M258.691,198.894h-14.994v-3.477h14.994V198.894z M255.267,204.45h-8.196v3.12h8.196V204.45z"/>
	<path fill="#FFFFFF" d="M265.212,202.5l3.123,1.431c-1.083,3.531-1.891,6.057-2.424,7.572l-2.924-1.753
		C263.904,207.388,264.646,204.971,265.212,202.5z M265.461,183.62h7.297c0.2-0.857,0.384-1.768,0.551-2.729l4.272,0.583
		l-0.762,2.146h8.659v17.906h-8.646l2.174,3.478l-2.774,2.536c-0.6-1.215-1.482-2.785-2.649-4.713l1.537-1.301h-9.659V183.62z
		 M282.205,186.967h-13.47v1.82h13.47V186.967z M268.735,193.467h13.47v-1.82h-13.47V193.467z M282.205,198.18v-1.853h-13.47v1.853
		H282.205z M279.781,204.613c1.382,1.063,2.473,1.831,3.273,2.307c-0.615,2.537-1.278,4.107-1.986,4.714s-1.604,0.909-2.687,0.909
		h-5.623c-2.499,0-3.747-1.407-3.747-4.224v-5.429h3.448v4.356c0,1.082,0.542,1.623,1.625,1.623h2.973
		c0.908,0,1.538-0.229,1.888-0.688C279.294,207.72,279.572,206.53,279.781,204.613z M284.904,201.82
		c1.366,2.989,2.356,5.252,2.974,6.79l-2.974,2.05c-0.784-2.362-1.724-4.725-2.824-7.087L284.904,201.82z"/>
	<path fill="#FFFFFF" d="M312.89,198.017c-1.283,2.882-2.95,5.405-4.999,7.573c1.9,1.104,4.44,1.971,7.622,2.6
		c-0.733,1.561-1.441,3.141-2.124,4.744c-3.398-0.996-6.291-2.481-8.672-4.453c-2.449,1.864-5.348,3.457-8.696,4.779
		c-0.6-1.43-1.232-2.83-1.899-4.193c2.782-1.018,5.29-2.199,7.521-3.543c-1.215-1.473-2.314-3.163-3.298-5.07
		c-1.933,4.008-4.147,7.41-6.647,10.207c-0.351-2.039-0.716-3.848-1.1-5.43c3.248-3.964,5.672-8.569,7.272-13.811h-6.272v-3.899
		c0.466-1.778,0.882-3.641,1.249-5.59l3.424,0.486c-0.25,1.343-0.591,3.013-1.025,5.004h3.599c0.384-1.841,0.767-3.986,1.15-6.434
		l3.624,0.39l-1.05,6.044h6.998c-0.933-1.191-1.891-2.382-2.874-3.574l2.2-2.696c1.531,1.538,2.832,2.935,3.897,4.19l-1.574,2.08
		h4.222v3.999h-13.818c-0.25,0.91-0.541,1.906-0.875,2.99h12.146V198.017z M304.668,203.25c1.732-1.604,3.082-3.294,4.048-5.07
		h-7.597C302.052,200.107,303.235,201.798,304.668,203.25z"/>
	<path fill="#FFFFFF" d="M333.58,213.063h-3.473v-14.917h-3.949v12.447h-3.448v-10.4c-1,1.397-2.067,2.741-3.199,4.03
		c-0.417-1.863-0.8-3.38-1.15-4.55c2.708-3.217,4.865-6.63,6.473-10.236h-6.123v-4.323h7.76c0.407-1.3,0.754-2.622,1.037-3.964
		l3.499,0.52c-0.283,1.171-0.6,2.318-0.95,3.444h12.845v4.323h-14.357c-0.673,1.689-1.428,3.324-2.262,4.906h3.825v-4.16h3.473v4.16
		h7.521v10.529c0,1.397-0.229,2.487-0.687,3.267c-0.458,0.78-1.058,1.259-1.799,1.438c-0.743,0.179-1.903,0.269-3.486,0.269
		c-0.217-1.757-0.417-3.187-0.6-4.29c0.8,0.086,1.315,0.13,1.549,0.13c1.083,0,1.624-0.78,1.624-2.34v-5.2h-4.123V213.063z"/>
	<path fill="#FFFFFF" d="M351.82,203.054l2.524,2.893c-1.883,2.296-3.94,4.398-6.173,6.304c-0.766-1.277-1.524-2.437-2.274-3.477
		C348.047,207.191,350.021,205.285,351.82,203.054z M346.922,183.164c8.164,0.044,15.569-0.379,22.217-1.267l0.5,3.573
		c-3.35,0.412-6.853,0.75-10.51,1.01c-1.732,1.363-3.568,2.663-5.509,3.899l8.259-0.489c1.24-0.91,2.512-1.872,3.811-2.891
		l2.349,3.054c-4.665,3.358-9.628,6.327-14.894,8.906c3.59-0.207,7.206-0.479,10.846-0.813c-0.641-0.824-1.249-1.57-1.825-2.243
		l2.325-2.437c1.282,1.452,3.315,3.997,6.098,7.637l-2.374,2.827c-0.592-0.855-1.162-1.663-1.712-2.421l-6.036,0.311v7.637
		c0,1.094-0.245,1.928-0.736,2.503c-0.491,0.572-1.241,0.885-2.249,0.934c-1.009,0.048-2.354,0.073-4.035,0.073
		c-0.15-1.582-0.367-3.057-0.65-4.42c0.816,0.086,1.687,0.13,2.611,0.13c0.674,0,1.12-0.097,1.337-0.293
		c0.217-0.194,0.324-0.563,0.324-1.104v-5.25c-3.731,0.249-6.589,0.525-8.571,0.83l-0.873-4.03c2.814-1.389,5.859-3.17,9.133-5.347
		c-3.307,0.26-5.859,0.558-7.659,0.894l-0.925-3.967c1.816-0.876,3.707-2.072,5.672-3.59l-6.372,0.243
		C347.355,185.83,347.172,184.53,346.922,183.164z M364.49,202.729c1.849,1.646,3.924,3.65,6.223,6.011l-2.299,3.12
		c-1.783-1.991-3.791-4.083-6.022-6.271L364.49,202.729z"/>
	<path fill="#FFFFFF" d="M378.207,200l3.699-0.553c-0.134,1.343-0.193,2.577-0.176,3.703c-2.698,0.174-4.973,0.479-6.822,0.91
		l-0.774-3.607c0.958-1.244,2.124-3.205,3.498-5.883c-1.299,0.12-2.374,0.26-3.223,0.424l-0.899-3.674
		c1.582-2.815,3.014-6.303,4.298-10.463l3.273,1.689c-1.216,2.968-2.532,5.763-3.948,8.384c0.691-0.01,1.479-0.047,2.361-0.113
		l1.138-2.453l2.599,1.819C381.498,193.738,379.822,197.01,378.207,200z M395.449,203.087c1,0.649,2,1.192,2.999,1.623
		c-0.225,3.316-0.618,5.439-1.181,6.37c-0.563,0.933-1.451,1.399-2.667,1.399h-1.475c-1.916,0-2.882-1.377-2.898-4.129v-10.367
		l-2.023,0.196c-0.093,4.755-0.651,8.219-1.676,10.392c-1.023,2.172-2.266,3.734-3.723,4.688c-0.699-1.03-1.524-2.163-2.475-3.396
		c-2.231,0.292-4.331,0.633-6.298,1.023l-0.274-4.323c1.649-0.152,4.49-0.542,8.521-1.17c-0.041,0.813-0.067,1.685-0.074,2.616
		c1.815-1.57,2.761-4.713,2.837-9.425c-0.935,0.142-1.68,0.286-2.237,0.438l-0.899-3.963c1.314-1.085,2.74-3.381,4.273-6.891h-4.225
		v-3.706h5.535c-0.274-0.865-0.587-1.775-0.938-2.729l3.725-0.877c0.449,1.181,0.878,2.383,1.287,3.606h6.283v3.706h-7.996
		c-1.091,2.21-2.348,4.387-3.772,6.53c2.091-0.097,4.397-0.243,6.923-0.437c-0.566-1.116-1.167-2.249-1.8-3.396l2.499-1.854
		c1.766,3.034,3.282,5.861,4.547,8.483l-2.723,2.144c-0.283-0.66-0.58-1.325-0.887-1.997l-1.213,0.08v9.359
		c0,0.847,0.217,1.268,0.65,1.268h0.225c0.392,0,0.648-0.265,0.774-0.796C395.2,207.025,395.325,205.534,395.449,203.087z"/>
</g>
</svg>
