<?xml version="1.0" encoding="utf-8"?>
<!-- Generator: Adobe Illustrator 16.0.0, SVG Export Plug-In . SVG Version: 6.00 Build 0)  -->
<!DOCTYPE svg PUBLIC "-//W3C//DTD SVG 1.1//EN" "http://www.w3.org/Graphics/SVG/1.1/DTD/svg11.dtd">
<svg version="1.1" id="隔离模式" xmlns="http://www.w3.org/2000/svg" xmlns:xlink="http://www.w3.org/1999/xlink" x="0px"
	 y="0px" width="1008px" height="363.313px" viewBox="0 0 1008 363.313" enable-background="new 0 0 1008 363.313"
	 xml:space="preserve">
<path fill="#FF0D03" d="M281.463,159.033l446.095-12.117c14.496-0.395,29.387,13.706,29.777,28.2
	c0.396,14.495-13.704,29.384-28.199,29.778l-446.122,12.209c-14.493,0.397-27.52-11.938-29.81-28.229
	C254.574,172.521,266.911,159.494,281.463,159.033L281.463,159.033z M681.743,64.701l141.439-3.852
	c63.523,0.143,133.813,48.936,135.496,110.66l0.59,21.738c-0.085,63.462-65.75,117.891-129.272,117.871l-141.44,3.852
	c-50.793,1.326-100.646-31.768-120.11-78.439l-48.867,3.143c14.511,66.813,77.493,115.863,148.224,112.128l183.161-3.176
	c83.464-2.273,148.733-71.198,144.699-152.8l1.071-27.225c-2.271-83.341-71.194-148.612-152.737-144.639L659.014,29.06
	c-63.522-0.144-116.751,44.884-137.072,99.89l50.854-1.385C593.608,90.67,638.26,65.887,681.74,64.703L681.743,64.701z
	 M330.592,297.463l-143.206,5.709c-61.688,1.713-131.982-47.203-133.731-112.52l-0.59-21.743
	c-1.711-61.627,65.818-114.296,127.509-116.007l143.203-5.711c50.757-1.353,102.508,33.532,120.074,78.411l49.063,0.446
	C476.453,57.63,415.33,10.218,344.529,10.364l-184.954,5.005c-83.431,2.302-148.7,71.224-144.637,152.735l0.761,29.083
	c2.206,79.744,71.127,145.014,152.735,144.638l183.156-6.833c65.254-1.742,118.579-43.146,136.982-99.854l-50.761,1.35
	C417.057,273.316,375.969,298.066,330.592,297.463L330.592,297.463z"/>
<path fill="#FF0D03" d="M281.745,164.39l446.095-12.117c14.495-0.395,29.386,13.706,29.777,28.2
	c0.395,14.496-13.704,29.384-28.199,29.779l-446.123,12.209c-14.493,0.396-27.52-11.939-29.81-28.229
	C254.856,177.877,267.192,164.85,281.745,164.39L281.745,164.39z M682.025,70.057l141.439-3.852
	c63.523,0.143,133.813,48.936,135.496,110.661l0.59,21.737c-0.085,63.461-65.751,117.891-129.272,117.87l-141.441,3.853
	c-50.792,1.326-100.645-31.768-120.111-78.44l-48.866,3.144c14.511,66.813,77.493,115.862,148.225,112.128l183.161-3.176
	c83.463-2.273,148.733-71.198,144.699-152.8l1.07-27.226c-2.271-83.341-71.193-148.612-152.736-144.639l-184.982,5.098
	c-63.522-0.144-116.752,44.884-137.073,99.891l50.854-1.385c20.814-36.894,65.465-61.677,108.946-62.861L682.025,70.057z
	 M330.874,302.819l-143.206,5.709c-61.688,1.713-131.982-47.203-133.73-112.519l-0.59-21.744
	C51.637,112.639,119.166,59.97,180.856,58.259l143.204-5.712c50.757-1.353,102.508,33.532,120.074,78.411l49.062,0.446
	C476.736,62.986,415.612,15.574,344.811,15.72l-184.954,5.005C76.425,23.028,11.158,91.95,15.219,173.461l0.762,29.083
	c2.205,79.745,71.127,145.014,152.734,144.638l183.156-6.833c65.254-1.741,118.58-43.146,136.983-99.853l-50.763,1.349
	C417.339,278.674,376.25,303.423,330.874,302.819L330.874,302.819z"/>
</svg>
